HIERARCHY
ROOT hip
{
	OFFSET 0.000000 0.000000 0.000000 
	CHANNELS 6 Xposition Yposition Zposition Xrotation Zrotation Yrotation
	JOINT abdomen
	{
		OFFSET 0.000000 3.402643 0.000000 
		CHANNELS 3 Xrotation Zrotation Yrotation
		JOINT chest
		{
			OFFSET 0.000000 8.438565 -0.680529 
			CHANNELS 3 Xrotation Zrotation Yrotation
			JOINT neck
			{
				OFFSET 0.000000 10.207942 -0.272212 
				CHANNELS 3 Xrotation Zrotation Yrotation
				JOINT head
				{
					OFFSET 0.000000 3.130431 0.000000 
					CHANNELS 3 Xrotation Zrotation Yrotation
					End Site
					{
						OFFSET 0.000000 3.130435 0.000000 
					}
				}
			}
			JOINT lCollar
			{
				OFFSET 3.470700 6.669187 -0.816635 
				CHANNELS 3 Yrotation Zrotation Xrotation
				JOINT lShldr
				{
					OFFSET 3.198488 0.000000 0.000000 
					CHANNELS 3 Zrotation Yrotation Xrotation
					JOINT lForeArm
					{
						OFFSET 10.139888 0.000000 0.000000 
						CHANNELS 3 Yrotation Zrotation Xrotation
						JOINT lHand
						{
							OFFSET 8.370511 0.000000 0.000000 
							CHANNELS 3 Zrotation Yrotation Xrotation
							End Site
							{
								OFFSET 4.083176 0.000000 0.000000 
							}
						}
					}
				}
			}
			JOINT rCollar
			{
				OFFSET -3.470700 6.669187 -0.816635 
				CHANNELS 3 Yrotation Zrotation Xrotation
				JOINT rShldr
				{
					OFFSET -3.198488 0.000000 0.000000 
					CHANNELS 3 Zrotation Yrotation Xrotation
					JOINT rForeArm
					{
						OFFSET -10.139888 0.000000 0.000000 
						CHANNELS 3 Yrotation Zrotation Xrotation
						JOINT rHand
						{
							OFFSET -8.370511 0.000000 0.000000 
							CHANNELS 3 Zrotation Yrotation Xrotation
							End Site
							{
								OFFSET -4.083176 0.000000 0.000000 
							}
						}
					}
				}
			}
		}
	}
	JOINT lThigh
	{
		OFFSET 5.308129 -1.633274 1.361059 
		CHANNELS 3 Xrotation Zrotation Yrotation
		JOINT lShin
		{
			OFFSET -2.041588 -20.007561 0.000000 
			CHANNELS 3 Xrotation Zrotation Yrotation
			JOINT lFoot
			{
				OFFSET 0.000000 -19.190928 -1.224953 
				CHANNELS 3 Xrotation Yrotation Zrotation
				End Site
				{
					OFFSET 0.000000 -2.449906 4.627600 
				}
			}
		}
	}
	JOINT rThigh
	{
		OFFSET -5.308129 -1.633274 1.361059 
		CHANNELS 3 Xrotation Zrotation Yrotation
		JOINT rShin
		{
			OFFSET 2.041588 -20.007561 0.000000 
			CHANNELS 3 Xrotation Zrotation Yrotation
			JOINT rFoot
			{
				OFFSET 0.000000 -19.190928 -1.224953 
				CHANNELS 3 Xrotation Yrotation Zrotation
				End Site
				{
					OFFSET 0.000000 -2.449906 4.627600 
				}
			}
		}
	}
}
MOTION
Frames: 6
Frame Time: 0.016667
7.724701 42.722298 -7.018545 -0.244616 3.574190 -30.103100 -20.994699 -0.607215 -0.729363 15.003900 2.634080 -0.558454 -23.731899 4.213970 -12.532100 0.898389 9.026230 -4.493580 2.000000 -2.000000 0.000000 58.827400 -64.884804 70.557098 64.443901 -0.273829 0.123393 0.071694 -0.072455 -163.766998 -2.000000 2.000000 0.000000 -37.779202 55.370300 83.958603 -55.088402 0.293094 0.112117 -0.056364 0.025029 -145.895996 -20.057486 -2.207802 -6.428055 46.703747 2.110651 3.229597 -14.734683 -7.323680 -1.119904 -17.459488 -2.223915 -11.538989 52.548275 -1.624721 -3.634078 -28.377443 -5.673196 -2.235422 
7.327407 43.973808 -6.945390 -0.029354 3.583980 -29.523300 -21.648800 -0.573039 -0.749588 14.494300 2.874490 -0.578206 -22.938700 4.540610 -12.714700 1.164670 9.144890 -4.524810 2.000000 -2.000000 0.000000 65.386398 -61.666599 64.663696 59.990700 -0.283227 0.118442 0.073697 -0.086049 -165.309998 -2.000000 2.000000 0.000000 -43.553699 53.649399 77.995903 -52.295399 0.298464 0.108171 -0.056972 0.028615 -147.195007 -18.827684 -2.031761 -7.594429 43.183372 2.321700 3.031737 -8.374145 -8.156382 -0.460182 -15.996119 -1.652249 -11.414497 49.051064 -1.857039 -3.441336 -23.478302 -6.016857 -1.830674 
6.929640 45.355244 -6.840220 0.273973 3.583940 -29.152201 -22.255800 -0.618382 -0.453701 14.075200 2.619890 -0.433939 -21.972200 4.847350 -12.939500 1.559890 9.234780 -4.573880 2.000000 -2.000000 0.000000 69.764000 -58.899601 61.619900 56.084499 -0.291133 0.113510 0.075666 -0.089585 -166.755997 -2.000000 2.000000 0.000000 -47.629799 51.791500 73.821198 -49.102001 0.304359 0.103345 -0.058051 0.034033 -149.167999 -18.140648 -1.841335 -8.825582 39.808876 2.486736 2.818397 1.196301 -6.577089 0.807163 -15.076020 -1.351789 -10.920053 45.840027 -2.022324 -3.282722 -17.097757 -8.084931 -1.699865 
6.531872 46.736542 -6.735060 0.577295 3.574040 -28.781799 -22.862400 -0.674930 -0.160202 13.656200 2.355880 -0.284785 -21.005400 5.155220 -13.154400 1.955310 9.324290 -4.620180 2.000000 -2.000000 0.000000 73.542900 -56.025700 59.181900 52.178200 -0.298685 0.108050 0.077724 -0.093070 -168.201004 -2.000000 2.000000 0.000000 -51.312302 49.757401 70.035797 -45.898899 0.309994 0.098182 -0.059315 0.039410 -151.139999 -17.466837 -1.632741 -10.046334 36.459293 2.661807 2.595080 10.683586 -4.810421 1.809181 -14.160256 -1.066801 -10.438825 42.665249 -2.183563 -3.088598 -10.702012 -10.125613 -1.369548 
6.157551 47.939739 -6.642077 0.919827 3.642110 -28.642200 -23.419901 -0.739344 0.139518 13.365100 1.908710 -0.133237 -19.730700 5.343000 -13.120000 2.499630 9.316150 -4.571950 2.000000 -2.000000 0.000000 75.264198 -53.134602 58.794998 48.428200 -0.305569 0.102337 0.075017 -0.088444 -166.287003 -2.000000 2.000000 0.000000 -54.875401 47.996700 66.729103 -42.207500 0.316117 0.091852 -0.059363 0.039595 -151.209000 -17.403551 -1.727315 -11.453376 34.618904 2.713048 2.475094 15.762400 -0.730553 1.073372 -13.917945 -1.081884 -9.354403 40.551300 -2.280218 -2.955551 -6.539885 -13.727937 -1.056567 
5.783227 49.143063 -6.549072 1.262400 3.700280 -28.502001 -23.986799 -0.789997 0.447487 13.073700 1.471740 0.031383 -18.445499 5.528610 -13.076100 3.034030 9.307170 -4.523890 2.000000 -2.000000 0.000000 76.849503 -50.233898 58.562302 44.678200 -0.312064 0.096185 0.072480 -0.073988 -164.382996 -2.000000 2.000000 0.000000 -58.173199 46.108898 63.693802 -38.515999 0.321820 0.085141 -0.059410 0.039781 -151.276993 -17.365658 -1.840195 -12.837110 32.795849 2.784189 2.368613 20.892796 3.242490 0.014668 -13.726073 -1.097246 -8.272267 38.562901 -2.390980 -2.829563 -2.376383 -17.270950 -0.472717 
